<svg width="14" height="14" viewBox="0 0 14 14" fill="none" xmlns="http://www.w3.org/2000/svg">
<g clip-path="url(#clip0_458_241)">
<path d="M8.24912 7L13.9088 1.34062C14.0306 1.21865 14.0306 1.02103 13.9088 0.899058L13.1016 0.0914396C13.0431 0.0330363 12.9634 0 12.8807 0C12.7978 0 12.7183 0.0330363 12.6598 0.0914396L7.00023 5.75096L1.34071 0.0914396C1.22346 -0.0258096 1.01595 -0.0256621 0.898993 0.0914396L0.0919648 0.899058C-0.0300039 1.02103 -0.0300039 1.21865 0.0919648 1.34062L5.75149 7L0.0919648 12.6594C-0.0300039 12.7813 -0.0300039 12.979 0.0919648 13.1009L0.899141 13.9086C0.957692 13.967 1.03719 14 1.12007 14C1.20296 14 1.2823 13.967 1.34085 13.9086L7.00038 8.24904L12.6599 13.9086C12.7185 13.967 12.7981 14 12.8808 14C12.9636 14 13.0432 13.967 13.1018 13.9086L13.9089 13.1009C14.0308 12.979 14.0308 12.7813 13.9089 12.6594L8.24912 7Z" fill="black"/>
</g>
<defs>
<clipPath id="clip0_458_241">
<rect width="14" height="14" fill="white"/>
</clipPath>
</defs>
</svg>
