<svg width="24" height="24" viewBox="0 0 24 24" fill="none" xmlns="http://www.w3.org/2000/svg">
<g clip-path="url(#clip0_456_1235)">
<path d="M20.4892 3.51079C15.8081 -1.17026 8.19176 -1.17026 3.51072 3.51079C-1.17024 8.19174 -1.17024 15.8083 3.51072 20.4892C5.85124 22.8297 8.92563 24 12 24C15.0744 24 18.1487 22.8297 20.4893 20.4892C25.1702 15.8083 25.1702 8.19174 20.4892 3.51079ZM4.72347 19.2766C0.711214 15.2643 0.711214 8.7358 4.72347 4.72355C6.72965 2.71746 9.36479 1.71433 11.9999 1.71433C14.6351 1.71433 17.2703 2.71737 19.2764 4.72355C23.2886 8.7358 23.2886 15.2643 19.2764 19.2766C15.2641 23.2887 8.73573 23.2887 4.72347 19.2766Z" fill="black"/>
<path d="M18.5632 11.1424H12.8575V5.43665C12.8575 4.963 12.4736 4.5791 11.9999 4.5791C11.5263 4.5791 11.1424 4.963 11.1424 5.43665V11.1424H5.43665C4.963 11.1424 4.5791 11.5263 4.5791 11.9999C4.5791 12.4736 4.963 12.8575 5.43665 12.8575H11.1424V18.5632C11.1424 19.0368 11.5263 19.4207 11.9999 19.4207C12.4736 19.4207 12.8575 19.0368 12.8575 18.5632V12.8575H18.5632C19.0368 12.8575 19.4207 12.4736 19.4207 11.9999C19.4207 11.5263 19.0368 11.1424 18.5632 11.1424Z" fill="black"/>
</g>
<defs>
<clipPath id="clip0_456_1235">
<rect width="24" height="24" fill="white"/>
</clipPath>
</defs>
</svg>
