<svg width="206" height="50" viewBox="0 0 206 50" fill="none" xmlns="http://www.w3.org/2000/svg">
<path d="M38.0132 12.6564L24.8888 4.86426C23.3289 3.93392 21.3845 3.93392 19.8246 4.86426L6.69756 12.6564C5.11856 13.6089 4.15719 15.322 4.1667 17.1661V32.7477C4.15812 34.5908 5.11936 36.3027 6.69756 37.2548L19.822 45.0443C21.382 45.974 23.3261 45.974 24.8862 45.0443L38.0106 37.2548C39.5906 36.3029 40.553 34.5897 40.5441 32.7451V17.1661C40.5536 15.322 39.5922 13.6089 38.0132 12.6564Z" fill="#ECE9F2"/>
<path d="M38.0878 12.6751L24.9345 4.86579C23.3711 3.93341 21.4224 3.93341 19.8591 4.86579L6.70314 12.6751C5.12065 13.6297 4.15717 15.3466 4.1667 17.1947V32.8107C4.1581 34.6578 5.12146 36.3735 6.70314 37.3277L19.8565 45.1343C21.4199 46.0661 23.3683 46.0661 24.9318 45.1343L38.0851 37.3277C39.6686 36.3736 40.6332 34.6567 40.6242 32.808V17.1947C40.6337 15.3466 39.6703 13.6297 38.0878 12.6751ZM20.3174 44.3363L7.16406 36.5296C5.86423 35.742 5.07253 34.3305 5.07804 32.8107V17.1947C5.072 15.6747 5.86384 14.263 7.16406 13.4758L20.3174 5.66648C21.5975 4.90276 23.1934 4.90276 24.4735 5.66648L37.6163 13.4758C38.6998 14.132 39.4388 15.2324 39.6365 16.4836C39.1992 15.5538 38.2168 15.2984 37.0711 15.9568L24.6368 23.6581C23.0855 24.5615 21.9424 25.5808 21.9398 27.4508V42.7849C21.9398 43.9043 22.3902 44.6286 23.0855 44.842C22.8578 44.8837 22.6269 44.9057 22.3955 44.9078C21.664 44.9073 20.9462 44.7099 20.3174 44.3363Z" fill="#2F3A3E"/>
<path d="M34.604 34.2868L31.3347 36.242C31.2472 36.2772 31.1885 36.3606 31.1849 36.4549V37.3143C31.1849 37.4194 31.2559 37.4614 31.3426 37.4115L34.6618 35.3932C34.7431 35.3322 34.782 35.2299 34.7617 35.1304V34.3761C34.7591 34.2789 34.6829 34.2368 34.604 34.2868Z" fill="#311C9C"/>
<path d="M27.647 27.0882C27.7521 27.0356 27.8388 27.0882 27.8414 27.238L27.8519 28.3786C28.2451 28.2 28.6837 28.1467 29.1081 28.2261C29.1896 28.2472 29.2238 28.3575 29.1922 28.4889L28.9426 29.4902C28.9237 29.5658 28.8846 29.6348 28.8296 29.6899C28.8103 29.709 28.7881 29.725 28.7639 29.7373C28.7342 29.7533 28.6999 29.7589 28.6666 29.753C28.2528 29.6614 27.8195 29.7309 27.4551 29.9475C26.9223 30.1875 26.574 30.7115 26.559 31.2957C26.559 31.8213 26.8218 31.9658 27.7389 31.9816C28.9505 32.0026 29.4761 32.5309 29.4892 33.7529C29.4604 35.0285 28.8722 36.2269 27.8809 37.0301L27.9019 38.1496C27.9 38.2886 27.8278 38.4173 27.71 38.4912L27.0478 38.8723C26.9426 38.9249 26.8559 38.8723 26.8533 38.7251V37.624C26.2856 37.8605 25.7101 37.9157 25.3422 37.7685C25.2738 37.7422 25.2423 37.6398 25.2712 37.5215L25.5104 36.5097C25.5286 36.4296 25.5696 36.3566 25.6286 36.2995C25.6473 36.2815 25.6686 36.2665 25.6917 36.2548C25.726 36.2394 25.7652 36.2394 25.7995 36.2548C26.2679 36.3818 26.7676 36.3185 27.1897 36.0787C27.7987 35.785 28.1945 35.1776 28.2172 34.5019C28.2172 33.9342 27.9045 33.6977 27.166 33.6924C26.2121 33.6924 25.3264 33.5085 25.308 32.1156C25.33 30.8988 25.8949 29.7555 26.848 28.9988L26.8007 27.853C26.8003 27.7119 26.8729 27.5807 26.9926 27.5061L27.647 27.0882Z" fill="#ECE9F2"/>
<path d="M38.0132 12.6564L24.8888 4.86426C23.3289 3.93392 21.3845 3.93392 19.8246 4.86426L6.69756 12.6564C5.11856 13.6089 4.15719 15.322 4.1667 17.1661V32.7477C4.15812 34.5908 5.11936 36.3027 6.69756 37.2548L19.822 45.0443C21.382 45.974 23.3261 45.974 24.8862 45.0443L38.0106 37.2548C39.5906 36.3029 40.553 34.5897 40.5441 32.7451V17.1661C40.5536 15.322 39.5922 13.6089 38.0132 12.6564Z" fill="#ECE9F2" stroke="black" stroke-width="0.325521"/>
<path d="M38.0878 12.6751L24.9345 4.86579C23.3711 3.93341 21.4224 3.93341 19.8591 4.86579L6.70314 12.6751C5.12065 13.6297 4.15717 15.3466 4.1667 17.1947V32.8107C4.1581 34.6578 5.12146 36.3735 6.70314 37.3277L19.8565 45.1343C21.4199 46.0661 23.3683 46.0661 24.9318 45.1343L38.0851 37.3277C39.6686 36.3736 40.6332 34.6567 40.6242 32.808V17.1947C40.6337 15.3466 39.6703 13.6297 38.0878 12.6751ZM20.3174 44.3363L7.16406 36.5296C5.86423 35.742 5.07253 34.3305 5.07804 32.8107V17.1947C5.072 15.6747 5.86384 14.263 7.16406 13.4758L20.3174 5.66648C21.5975 4.90276 23.1934 4.90276 24.4735 5.66648L37.6163 13.4758C38.6998 14.132 39.4388 15.2324 39.6365 16.4836C39.1992 15.5538 38.2168 15.2984 37.0711 15.9568L24.6368 23.6581C23.0855 24.5615 21.9424 25.5808 21.9398 27.4508V42.7849C21.9398 43.9043 22.3902 44.6286 23.0855 44.842C22.8578 44.8837 22.6269 44.9057 22.3955 44.9078C21.664 44.9073 20.9462 44.7099 20.3174 44.3363Z" fill="#2F3A3E" stroke="black" stroke-width="0.325521"/>
<path d="M34.604 34.2868L31.3347 36.242C31.2472 36.2772 31.1885 36.3606 31.1849 36.4549V37.3143C31.1849 37.4194 31.2559 37.4614 31.3426 37.4115L34.6618 35.3932C34.7431 35.3322 34.782 35.2299 34.7617 35.1304V34.3761C34.7591 34.2789 34.6829 34.2368 34.604 34.2868Z" fill="#7DACBC" stroke="black" stroke-width="0.325521"/>
<path d="M27.647 27.0882C27.7521 27.0356 27.8388 27.0882 27.8414 27.238L27.8519 28.3786C28.2451 28.2 28.6837 28.1467 29.1081 28.2261C29.1896 28.2472 29.2238 28.3575 29.1922 28.4889L28.9426 29.4902C28.9237 29.5658 28.8846 29.6348 28.8296 29.6899C28.8103 29.709 28.7881 29.725 28.7639 29.7373C28.7342 29.7533 28.6999 29.7589 28.6666 29.753C28.2528 29.6614 27.8195 29.7309 27.4551 29.9475C26.9223 30.1875 26.574 30.7115 26.559 31.2957C26.559 31.8213 26.8218 31.9658 27.7389 31.9816C28.9505 32.0026 29.4761 32.5309 29.4892 33.7529C29.4604 35.0285 28.8722 36.2269 27.8809 37.0301L27.9019 38.1496C27.9 38.2886 27.8278 38.4173 27.71 38.4912L27.0478 38.8723C26.9426 38.9249 26.8559 38.8723 26.8533 38.7251V37.624C26.2856 37.8605 25.7101 37.9157 25.3422 37.7685C25.2738 37.7422 25.2423 37.6398 25.2712 37.5215L25.5104 36.5097C25.5286 36.4296 25.5696 36.3566 25.6286 36.2995C25.6473 36.2815 25.6686 36.2665 25.6917 36.2548C25.726 36.2394 25.7652 36.2394 25.7995 36.2548C26.2679 36.3818 26.7676 36.3185 27.1897 36.0787C27.7987 35.785 28.1945 35.1776 28.2172 34.5019C28.2172 33.9342 27.9045 33.6977 27.166 33.6924C26.2121 33.6924 25.3264 33.5085 25.308 32.1156C25.33 30.8988 25.8949 29.7555 26.848 28.9988L26.8007 27.853C26.8003 27.7119 26.8729 27.5807 26.9926 27.5061L27.647 27.0882Z" fill="#ECE9F2" stroke="black" stroke-width="0.325521"/>
<path d="M59.62 36V35.7L61.45 35.4V15.36L59.62 15.06V14.76H66.76V15.06L64.9 15.36V35.55H70.84C71.3 35.55 71.7 35.42 72.04 35.16C72.4 34.9 72.71 34.49 72.97 33.93C73.23 33.37 73.46 32.63 73.66 31.71L74.23 27.93H74.74L75.61 36H59.62ZM85.8121 20.55C87.0521 20.55 88.1521 20.74 89.1121 21.12C90.0921 21.5 90.9121 22.05 91.5721 22.77C92.2321 23.47 92.7321 24.32 93.0721 25.32C93.4121 26.3 93.5821 27.4 93.5821 28.62C93.5821 29.76 93.4121 30.81 93.0721 31.77C92.7321 32.71 92.2321 33.54 91.5721 34.26C90.9121 34.96 90.1021 35.5 89.1421 35.88C88.1821 36.26 87.0721 36.45 85.8121 36.45C84.5321 36.45 83.4021 36.26 82.4221 35.88C81.4621 35.5 80.6521 34.96 79.9921 34.26C79.3321 33.54 78.8321 32.71 78.4921 31.77C78.1721 30.81 78.0121 29.76 78.0121 28.62C78.0121 27.4 78.1921 26.3 78.5521 25.32C78.9121 24.32 79.4221 23.47 80.0821 22.77C80.7621 22.05 81.5821 21.5 82.5421 21.12C83.5021 20.74 84.5921 20.55 85.8121 20.55ZM85.8121 20.94C84.8321 20.94 84.0121 21.27 83.3521 21.93C82.7121 22.59 82.2221 23.5 81.8821 24.66C81.5621 25.82 81.4021 27.14 81.4021 28.62C81.4021 29.68 81.4821 30.66 81.6421 31.56C81.8221 32.46 82.0921 33.25 82.4521 33.93C82.8321 34.61 83.3021 35.14 83.8621 35.52C84.4221 35.88 85.0721 36.06 85.8121 36.06C86.5321 36.06 87.1621 35.88 87.7021 35.52C88.2621 35.14 88.7321 34.62 89.1121 33.96C89.4921 33.28 89.7721 32.49 89.9521 31.59C90.1321 30.67 90.2221 29.68 90.2221 28.62C90.2221 27.5 90.1321 26.48 89.9521 25.56C89.7721 24.62 89.5021 23.81 89.1421 23.13C88.7821 22.43 88.3221 21.89 87.7621 21.51C87.2021 21.13 86.5521 20.94 85.8121 20.94ZM102.187 36L96.3067 21.6L94.5367 21.3V21H101.797V21.3L99.9067 21.57L104.557 33.21H104.917L107.437 26.13C107.537 25.87 107.607 25.57 107.647 25.23C107.687 24.89 107.707 24.53 107.707 24.15C107.707 23.81 107.657 23.48 107.557 23.16C107.477 22.82 107.317 22.51 107.077 22.23C106.857 21.95 106.557 21.73 106.177 21.57C105.817 21.39 105.357 21.3 104.797 21.3V21H111.457V21.3L109.567 21.6L104.257 36H102.187ZM120.622 20.55C122.222 20.55 123.542 20.87 124.582 21.51C125.642 22.15 126.432 23.02 126.952 24.12C127.492 25.2 127.762 26.44 127.762 27.84H115.912V27.54L124.702 27.21C124.702 25.89 124.552 24.77 124.252 23.85C123.952 22.91 123.502 22.19 122.902 21.69C122.302 21.19 121.542 20.94 120.622 20.94C119.682 20.94 118.862 21.21 118.162 21.75C117.462 22.29 116.922 23.1 116.542 24.18C116.162 25.26 115.972 26.6 115.972 28.2C115.972 29.14 116.102 30.04 116.362 30.9C116.622 31.74 116.992 32.5 117.472 33.18C117.952 33.84 118.542 34.36 119.242 34.74C119.942 35.12 120.742 35.31 121.642 35.31C122.242 35.31 122.832 35.23 123.412 35.07C123.992 34.91 124.532 34.68 125.032 34.38C125.532 34.06 125.982 33.68 126.382 33.24C126.802 32.78 127.162 32.25 127.462 31.65L127.762 31.95C127.322 32.83 126.822 33.56 126.262 34.14C125.702 34.72 125.092 35.18 124.432 35.52C123.772 35.86 123.092 36.1 122.392 36.24C121.692 36.38 120.982 36.45 120.262 36.45C119.062 36.45 117.992 36.24 117.052 35.82C116.112 35.4 115.312 34.84 114.652 34.14C113.992 33.42 113.482 32.59 113.122 31.65C112.782 30.71 112.612 29.71 112.612 28.65C112.612 27.43 112.812 26.33 113.212 25.35C113.612 24.35 114.162 23.49 114.862 22.77C115.582 22.05 116.432 21.5 117.412 21.12C118.392 20.74 119.462 20.55 120.622 20.55ZM140.691 14.76C142.251 14.76 143.551 14.95 144.591 15.33C145.651 15.69 146.441 16.23 146.961 16.95C147.501 17.67 147.771 18.58 147.771 19.68C147.771 20.52 147.581 21.25 147.201 21.87C146.841 22.49 146.371 23 145.791 23.4C145.211 23.8 144.561 24.11 143.841 24.33C143.121 24.53 142.411 24.65 141.711 24.69V24.93C142.611 24.95 143.491 25.07 144.351 25.29C145.211 25.49 145.981 25.8 146.661 26.22C147.341 26.64 147.881 27.19 148.281 27.87C148.681 28.53 148.881 29.35 148.881 30.33C148.881 31.29 148.701 32.13 148.341 32.85C148.001 33.55 147.491 34.14 146.811 34.62C146.131 35.08 145.281 35.43 144.261 35.67C143.241 35.89 142.051 36 140.691 36H130.431V35.7L132.261 35.25V15.51L130.431 15.06V14.76H140.691ZM139.941 15.24C138.961 15.24 138.121 15.26 137.421 15.3C136.721 15.32 136.151 15.37 135.711 15.45V35.34C136.471 35.48 137.921 35.55 140.061 35.55C141.201 35.55 142.181 35.37 143.001 35.01C143.841 34.65 144.481 34.07 144.921 33.27C145.381 32.45 145.611 31.4 145.611 30.12C145.611 28.42 145.151 27.17 144.231 26.37C143.331 25.55 141.871 25.12 139.851 25.08L135.501 25.02V24.69L139.851 24.63C140.971 24.61 141.881 24.4 142.581 24C143.301 23.58 143.831 23 144.171 22.26C144.531 21.52 144.711 20.66 144.711 19.68C144.711 18.24 144.311 17.14 143.511 16.38C142.711 15.62 141.521 15.24 139.941 15.24ZM159.706 20.55C160.866 20.55 161.856 20.69 162.676 20.97C163.516 21.23 164.206 21.64 164.746 22.2C165.286 22.76 165.676 23.47 165.916 24.33C166.156 25.17 166.276 26.17 166.276 27.33V34.95C166.276 35.25 166.336 35.47 166.456 35.61C166.596 35.75 166.776 35.82 166.996 35.82C167.236 35.82 167.506 35.75 167.806 35.61C168.126 35.47 168.436 35.29 168.736 35.07V35.4C168.496 35.62 168.206 35.81 167.866 35.97C167.546 36.13 167.206 36.25 166.846 36.33C166.486 36.41 166.136 36.45 165.796 36.45C164.916 36.45 164.226 36.22 163.726 35.76C163.226 35.28 162.976 34.51 162.976 33.45C162.976 33.05 162.976 32.76 162.976 32.58C162.976 32.38 162.976 32.23 162.976 32.13C162.976 32.03 162.976 31.92 162.976 31.8L162.736 31.62C162.356 32.38 161.896 33.06 161.356 33.66C160.836 34.26 160.246 34.77 159.586 35.19C158.946 35.59 158.286 35.9 157.606 36.12C156.926 36.34 156.246 36.45 155.566 36.45C154.826 36.45 154.156 36.32 153.556 36.06C152.956 35.82 152.476 35.46 152.116 34.98C151.756 34.48 151.576 33.87 151.576 33.15C151.576 31.45 152.546 30.16 154.486 29.28C156.426 28.38 159.256 27.93 162.976 27.93C162.976 26.23 162.846 24.89 162.586 23.91C162.326 22.91 161.876 22.19 161.236 21.75C160.596 21.31 159.716 21.09 158.596 21.09C157.856 21.09 157.196 21.16 156.616 21.3C156.056 21.42 155.616 21.57 155.296 21.75C154.996 21.93 154.846 22.09 154.846 22.23C154.846 22.33 154.936 22.44 155.116 22.56C155.316 22.66 155.666 22.81 156.166 23.01C157.086 23.37 157.546 23.88 157.546 24.54C157.546 25.14 157.286 25.6 156.766 25.92C156.246 26.22 155.616 26.37 154.876 26.37C154.156 26.37 153.536 26.21 153.016 25.89C152.516 25.57 152.266 25.11 152.266 24.51C152.266 24.03 152.466 23.56 152.866 23.1C153.286 22.62 153.836 22.19 154.516 21.81C155.216 21.43 156.006 21.13 156.886 20.91C157.786 20.67 158.726 20.55 159.706 20.55ZM162.976 28.29C161.076 28.29 159.506 28.5 158.266 28.92C157.026 29.32 156.106 29.87 155.506 30.57C154.906 31.27 154.606 32.05 154.606 32.91C154.606 33.43 154.706 33.86 154.906 34.2C155.126 34.52 155.416 34.76 155.776 34.92C156.136 35.08 156.546 35.16 157.006 35.16C157.506 35.16 158.036 35.07 158.596 34.89C159.176 34.69 159.746 34.39 160.306 33.99C160.866 33.59 161.376 33.09 161.836 32.49C162.316 31.87 162.696 31.14 162.976 30.3V28.29ZM177.188 36.45C176.288 36.45 175.438 36.37 174.638 36.21C173.858 36.05 173.158 35.81 172.538 35.49C171.938 35.17 171.468 34.79 171.128 34.35C170.788 33.91 170.618 33.42 170.618 32.88C170.618 32.48 170.728 32.15 170.948 31.89C171.188 31.61 171.488 31.4 171.848 31.26C172.208 31.12 172.588 31.05 172.988 31.05C173.388 31.05 173.768 31.12 174.128 31.26C174.488 31.38 174.778 31.56 174.998 31.8C175.218 32.04 175.328 32.33 175.328 32.67C175.328 32.95 175.258 33.2 175.118 33.42C174.998 33.64 174.808 33.85 174.548 34.05C174.228 34.27 174.008 34.45 173.888 34.59C173.768 34.73 173.708 34.88 173.708 35.04C173.708 35.2 173.848 35.36 174.128 35.52C174.408 35.68 174.798 35.82 175.298 35.94C175.818 36.04 176.398 36.09 177.038 36.09C177.938 36.09 178.728 35.98 179.408 35.76C180.088 35.52 180.618 35.18 180.998 34.74C181.398 34.3 181.598 33.74 181.598 33.06C181.598 32.54 181.438 32.07 181.118 31.65C180.798 31.23 180.268 30.83 179.528 30.45C178.788 30.07 177.778 29.68 176.498 29.28C175.078 28.8 173.948 28.32 173.108 27.84C172.288 27.36 171.698 26.85 171.338 26.31C170.998 25.77 170.828 25.18 170.828 24.54C170.828 23.32 171.428 22.35 172.628 21.63C173.848 20.91 175.488 20.55 177.548 20.55C178.668 20.55 179.698 20.7 180.638 21C181.578 21.3 182.338 21.72 182.918 22.26C183.498 22.78 183.788 23.4 183.788 24.12C183.788 24.5 183.678 24.82 183.458 25.08C183.238 25.32 182.948 25.5 182.588 25.62C182.248 25.74 181.888 25.8 181.508 25.8C181.208 25.8 180.908 25.77 180.608 25.71C180.328 25.63 180.068 25.53 179.828 25.41C179.608 25.27 179.428 25.1 179.288 24.9C179.148 24.68 179.078 24.43 179.078 24.15C179.078 23.61 179.378 23.14 179.978 22.74C180.298 22.54 180.518 22.37 180.638 22.23C180.758 22.09 180.818 21.96 180.818 21.84C180.818 21.74 180.738 21.63 180.578 21.51C180.418 21.39 180.188 21.29 179.888 21.21C179.608 21.11 179.288 21.04 178.928 21C178.568 20.94 178.178 20.91 177.758 20.91C176.858 20.91 176.058 21.01 175.358 21.21C174.658 21.41 174.108 21.71 173.708 22.11C173.308 22.49 173.108 22.96 173.108 23.52C173.108 24.02 173.298 24.5 173.678 24.96C174.058 25.4 174.618 25.81 175.358 26.19C176.098 26.55 177.008 26.91 178.088 27.27C179.588 27.79 180.768 28.28 181.628 28.74C182.508 29.2 183.138 29.68 183.518 30.18C183.898 30.66 184.088 31.22 184.088 31.86C184.088 32.6 183.908 33.26 183.548 33.84C183.188 34.42 182.698 34.9 182.078 35.28C181.458 35.66 180.728 35.95 179.888 36.15C179.068 36.35 178.168 36.45 177.188 36.45ZM204.582 35.7V36H198.072V35.7L199.602 35.4V25.38C199.602 24.18 199.392 23.28 198.972 22.68C198.552 22.08 197.942 21.78 197.142 21.78C196.602 21.78 196.062 21.95 195.522 22.29C195.002 22.63 194.492 23.07 193.992 23.61C193.512 24.15 193.072 24.73 192.672 25.35C192.272 25.97 191.952 26.56 191.712 27.12V35.4L193.242 35.7V36H186.732V35.7L188.412 35.4V15H186.552V14.67L191.712 13.65V25.47L191.952 25.68C192.492 24.64 193.102 23.74 193.782 22.98C194.462 22.2 195.202 21.6 196.002 21.18C196.802 20.76 197.662 20.55 198.582 20.55C199.382 20.55 200.052 20.68 200.592 20.94C201.152 21.18 201.592 21.53 201.912 21.99C202.252 22.45 202.502 23 202.662 23.64C202.822 24.28 202.902 25.01 202.902 25.83V35.4L204.582 35.7Z" fill="white"/>
</svg>
