<svg width="148" height="100" viewBox="0 0 148 100" fill="none" xmlns="http://www.w3.org/2000/svg">
<path d="M89.6159 15.1878L73.8666 5.8373C71.9948 4.7209 69.6614 4.7209 67.7896 5.8373L52.0371 15.1878C50.1423 16.3309 48.9887 18.3866 49.0001 20.5995V39.2974C48.9898 41.5092 50.1433 43.5634 52.0371 44.7059L67.7864 54.0533C69.6585 55.169 71.9914 55.169 73.8635 54.0533L89.6128 44.7059C91.5088 43.5636 92.6637 41.5078 92.653 39.2943V20.5995C92.6644 18.3866 91.5107 16.3309 89.6159 15.1878Z" fill="#ECE9F2"/>
<path d="M89.7054 15.2103L73.9214 5.83915C72.0454 4.72028 69.7069 4.72028 67.8309 5.83915L52.0438 15.2103C50.1448 16.3559 48.9887 18.4161 49.0001 20.6339V39.373C48.9898 41.5896 50.1458 43.6484 52.0438 44.7934L67.8278 54.1614C69.704 55.2795 72.0421 55.2795 73.9182 54.1614L89.7022 44.7934C91.6024 43.6486 92.7599 41.5882 92.7491 39.3698V20.6339C92.7605 18.4161 91.6044 16.3559 89.7054 15.2103ZM68.3809 53.2037L52.5969 43.8357C51.0371 42.8906 50.0871 41.1968 50.0937 39.373V20.6339C50.0865 18.8099 51.0367 17.1158 52.5969 16.1711L68.3809 6.79997C69.9171 5.88351 71.8321 5.88351 73.3683 6.79997L89.1396 16.1711C90.4398 16.9586 91.3267 18.2791 91.5638 19.7805C91.0391 18.6648 89.8602 18.3582 88.4854 19.1484L73.5643 28.3899C71.7027 29.474 70.331 30.6972 70.3278 32.9412V51.3421C70.3278 52.6854 70.8683 53.5545 71.7027 53.8105C71.4294 53.8606 71.1524 53.8871 70.8746 53.8896C69.9969 53.8889 69.1355 53.652 68.3809 53.2037Z" fill="#2F3A3E"/>
<path d="M85.5249 41.1445L81.6018 43.4908C81.4967 43.533 81.4263 43.6331 81.422 43.7463V44.7775C81.422 44.9036 81.5071 44.9541 81.6112 44.8942L85.5943 42.4722C85.6918 42.3991 85.7385 42.2763 85.7141 42.1568V41.2517C85.7109 41.135 85.6195 41.0846 85.5249 41.1445Z" fill="#311C9C"/>
<path d="M77.1764 32.5062C77.3025 32.4432 77.4066 32.5062 77.4097 32.686L77.4224 34.0547C77.8941 33.8403 78.4205 33.7765 78.9298 33.8718C79.0276 33.897 79.0686 34.0294 79.0307 34.1871L78.7311 35.3887C78.7084 35.4793 78.6615 35.5622 78.5955 35.6283C78.5723 35.6512 78.5457 35.6704 78.5167 35.6851C78.481 35.7044 78.4399 35.711 78.4 35.704C77.9033 35.594 77.3834 35.6775 76.9462 35.9374C76.3068 36.2254 75.8888 36.8542 75.8708 37.5552C75.8708 38.1859 76.1861 38.3594 77.2868 38.3783C78.7406 38.4035 79.3713 39.0374 79.3871 40.5039C79.3525 42.0345 78.6467 43.4726 77.457 44.4365L77.4823 45.7799C77.48 45.9468 77.3934 46.1011 77.2521 46.1899L76.4573 46.6472C76.3312 46.7102 76.2271 46.6472 76.224 46.4705V45.1492C75.5428 45.433 74.8521 45.4992 74.4106 45.3226C74.3286 45.2911 74.2908 45.1681 74.3255 45.0262L74.6125 43.812C74.6343 43.7159 74.6836 43.6283 74.7544 43.5597C74.7768 43.5382 74.8023 43.5202 74.8301 43.5061C74.8712 43.4876 74.9182 43.4876 74.9594 43.5061C75.5216 43.6586 76.1212 43.5826 76.6276 43.2948C77.3585 42.9424 77.8334 42.2136 77.8607 41.4026C77.8607 40.7215 77.4854 40.4376 76.5993 40.4313C75.4545 40.4313 74.3917 40.2106 74.3696 38.5391C74.396 37.0789 75.0738 35.707 76.2177 34.7989L76.1609 33.4239C76.1604 33.2547 76.2475 33.0972 76.3911 33.0077L77.1764 32.5062Z" fill="#ECE9F2"/>
<path d="M89.6159 15.1878L73.8666 5.8373C71.9948 4.7209 69.6614 4.7209 67.7896 5.8373L52.0371 15.1878C50.1423 16.3309 48.9887 18.3866 49.0001 20.5995V39.2974C48.9898 41.5092 50.1433 43.5634 52.0371 44.7059L67.7864 54.0533C69.6585 55.169 71.9914 55.169 73.8635 54.0533L89.6128 44.7059C91.5088 43.5636 92.6637 41.5078 92.653 39.2943V20.5995C92.6644 18.3866 91.5107 16.3309 89.6159 15.1878Z" fill="#ECE9F2" stroke="black" stroke-width="0.325521"/>
<path d="M89.7054 15.2103L73.9214 5.83915C72.0454 4.72028 69.7069 4.72028 67.8309 5.83915L52.0438 15.2103C50.1448 16.3559 48.9887 18.4161 49.0001 20.6339V39.373C48.9898 41.5896 50.1458 43.6484 52.0438 44.7934L67.8278 54.1614C69.704 55.2795 72.0421 55.2795 73.9182 54.1614L89.7022 44.7934C91.6024 43.6486 92.7599 41.5882 92.7491 39.3698V20.6339C92.7605 18.4161 91.6044 16.3559 89.7054 15.2103ZM68.3809 53.2037L52.5969 43.8357C51.0371 42.8906 50.0871 41.1968 50.0937 39.373V20.6339C50.0865 18.8099 51.0367 17.1158 52.5969 16.1711L68.3809 6.79997C69.9171 5.88351 71.8321 5.88351 73.3683 6.79997L89.1396 16.1711C90.4398 16.9586 91.3267 18.2791 91.5638 19.7805C91.0391 18.6648 89.8602 18.3582 88.4854 19.1484L73.5643 28.3899C71.7027 29.474 70.331 30.6972 70.3278 32.9412V51.3421C70.3278 52.6854 70.8683 53.5545 71.7027 53.8105C71.4294 53.8606 71.1524 53.8871 70.8746 53.8896C69.9969 53.8889 69.1355 53.652 68.3809 53.2037Z" fill="#2F3A3E" stroke="black" stroke-width="0.325521"/>
<path d="M85.5249 41.1445L81.6018 43.4908C81.4967 43.533 81.4263 43.6331 81.422 43.7463V44.7775C81.422 44.9036 81.5071 44.9541 81.6112 44.8942L85.5943 42.4722C85.6918 42.3991 85.7385 42.2763 85.7141 42.1568V41.2517C85.7109 41.135 85.6195 41.0846 85.5249 41.1445Z" fill="#7DACBC" stroke="black" stroke-width="0.325521"/>
<path d="M77.1764 32.5062C77.3025 32.4432 77.4066 32.5062 77.4097 32.686L77.4224 34.0547C77.8941 33.8403 78.4205 33.7765 78.9298 33.8718C79.0276 33.897 79.0686 34.0294 79.0307 34.1871L78.7311 35.3887C78.7084 35.4793 78.6615 35.5622 78.5955 35.6283C78.5723 35.6512 78.5457 35.6704 78.5167 35.6851C78.481 35.7044 78.4399 35.711 78.4 35.704C77.9033 35.594 77.3834 35.6775 76.9462 35.9374C76.3068 36.2254 75.8888 36.8542 75.8708 37.5552C75.8708 38.1859 76.1861 38.3594 77.2868 38.3783C78.7406 38.4035 79.3713 39.0374 79.3871 40.5039C79.3525 42.0345 78.6467 43.4726 77.457 44.4365L77.4823 45.7799C77.48 45.9468 77.3934 46.1011 77.2521 46.1899L76.4573 46.6472C76.3312 46.7102 76.2271 46.6472 76.224 46.4705V45.1492C75.5428 45.433 74.8521 45.4992 74.4106 45.3226C74.3286 45.2911 74.2908 45.1681 74.3255 45.0262L74.6125 43.812C74.6343 43.7159 74.6836 43.6283 74.7544 43.5597C74.7768 43.5382 74.8023 43.5202 74.8301 43.5061C74.8712 43.4876 74.9182 43.4876 74.9594 43.5061C75.5216 43.6586 76.1212 43.5826 76.6276 43.2948C77.3585 42.9424 77.8334 42.2136 77.8607 41.4026C77.8607 40.7215 77.4854 40.4376 76.5993 40.4313C75.4545 40.4313 74.3917 40.2106 74.3696 38.5391C74.396 37.0789 75.0738 35.707 76.2177 34.7989L76.1609 33.4239C76.1604 33.2547 76.2475 33.0972 76.3911 33.0077L77.1764 32.5062Z" fill="#ECE9F2" stroke="black" stroke-width="0.325521"/>
<path d="M1.62 91V90.7L3.45 90.4V70.36L1.62 70.06V69.76H8.76V70.06L6.9 70.36V90.55H12.84C13.3 90.55 13.7 90.42 14.04 90.16C14.4 89.9 14.71 89.49 14.97 88.93C15.23 88.37 15.46 87.63 15.66 86.71L16.23 82.93H16.74L17.61 91H1.62ZM27.8121 75.55C29.0521 75.55 30.1521 75.74 31.1121 76.12C32.0921 76.5 32.9121 77.05 33.5721 77.77C34.2321 78.47 34.7321 79.32 35.0721 80.32C35.4121 81.3 35.5821 82.4 35.5821 83.62C35.5821 84.76 35.4121 85.81 35.0721 86.77C34.7321 87.71 34.2321 88.54 33.5721 89.26C32.9121 89.96 32.1021 90.5 31.1421 90.88C30.1821 91.26 29.0721 91.45 27.8121 91.45C26.5321 91.45 25.4021 91.26 24.4221 90.88C23.4621 90.5 22.6521 89.96 21.9921 89.26C21.3321 88.54 20.8321 87.71 20.4921 86.77C20.1721 85.81 20.0121 84.76 20.0121 83.62C20.0121 82.4 20.1921 81.3 20.5521 80.32C20.9121 79.32 21.4221 78.47 22.0821 77.77C22.7621 77.05 23.5821 76.5 24.5421 76.12C25.5021 75.74 26.5921 75.55 27.8121 75.55ZM27.8121 75.94C26.8321 75.94 26.0121 76.27 25.3521 76.93C24.7121 77.59 24.2221 78.5 23.8821 79.66C23.5621 80.82 23.4021 82.14 23.4021 83.62C23.4021 84.68 23.4821 85.66 23.6421 86.56C23.8221 87.46 24.0921 88.25 24.4521 88.93C24.8321 89.61 25.3021 90.14 25.8621 90.52C26.4221 90.88 27.0721 91.06 27.8121 91.06C28.5321 91.06 29.1621 90.88 29.7021 90.52C30.2621 90.14 30.7321 89.62 31.1121 88.96C31.4921 88.28 31.7721 87.49 31.9521 86.59C32.1321 85.67 32.2221 84.68 32.2221 83.62C32.2221 82.5 32.1321 81.48 31.9521 80.56C31.7721 79.62 31.5021 78.81 31.1421 78.13C30.7821 77.43 30.3221 76.89 29.7621 76.51C29.2021 76.13 28.5521 75.94 27.8121 75.94ZM44.1867 91L38.3067 76.6L36.5367 76.3V76H43.7967V76.3L41.9067 76.57L46.5567 88.21H46.9167L49.4367 81.13C49.5367 80.87 49.6067 80.57 49.6467 80.23C49.6867 79.89 49.7067 79.53 49.7067 79.15C49.7067 78.81 49.6567 78.48 49.5567 78.16C49.4767 77.82 49.3167 77.51 49.0767 77.23C48.8567 76.95 48.5567 76.73 48.1767 76.57C47.8167 76.39 47.3567 76.3 46.7967 76.3V76H53.4567V76.3L51.5667 76.6L46.2567 91H44.1867ZM62.6217 75.55C64.2217 75.55 65.5417 75.87 66.5817 76.51C67.6417 77.15 68.4317 78.02 68.9517 79.12C69.4917 80.2 69.7617 81.44 69.7617 82.84H57.9117V82.54L66.7017 82.21C66.7017 80.89 66.5517 79.77 66.2517 78.85C65.9517 77.91 65.5017 77.19 64.9017 76.69C64.3017 76.19 63.5417 75.94 62.6217 75.94C61.6817 75.94 60.8617 76.21 60.1617 76.75C59.4617 77.29 58.9217 78.1 58.5417 79.18C58.1617 80.26 57.9717 81.6 57.9717 83.2C57.9717 84.14 58.1017 85.04 58.3617 85.9C58.6217 86.74 58.9917 87.5 59.4717 88.18C59.9517 88.84 60.5417 89.36 61.2417 89.74C61.9417 90.12 62.7417 90.31 63.6417 90.31C64.2417 90.31 64.8317 90.23 65.4117 90.07C65.9917 89.91 66.5317 89.68 67.0317 89.38C67.5317 89.06 67.9817 88.68 68.3817 88.24C68.8017 87.78 69.1617 87.25 69.4617 86.65L69.7617 86.95C69.3217 87.83 68.8217 88.56 68.2617 89.14C67.7017 89.72 67.0917 90.18 66.4317 90.52C65.7717 90.86 65.0917 91.1 64.3917 91.24C63.6917 91.38 62.9817 91.45 62.2617 91.45C61.0617 91.45 59.9917 91.24 59.0517 90.82C58.1117 90.4 57.3117 89.84 56.6517 89.14C55.9917 88.42 55.4817 87.59 55.1217 86.65C54.7817 85.71 54.6117 84.71 54.6117 83.65C54.6117 82.43 54.8117 81.33 55.2117 80.35C55.6117 79.35 56.1617 78.49 56.8617 77.77C57.5817 77.05 58.4317 76.5 59.4117 76.12C60.3917 75.74 61.4617 75.55 62.6217 75.55ZM82.6905 69.76C84.2505 69.76 85.5505 69.95 86.5905 70.33C87.6505 70.69 88.4405 71.23 88.9605 71.95C89.5005 72.67 89.7705 73.58 89.7705 74.68C89.7705 75.52 89.5805 76.25 89.2005 76.87C88.8405 77.49 88.3705 78 87.7905 78.4C87.2105 78.8 86.5605 79.11 85.8405 79.33C85.1205 79.53 84.4105 79.65 83.7105 79.69V79.93C84.6105 79.95 85.4905 80.07 86.3505 80.29C87.2105 80.49 87.9805 80.8 88.6605 81.22C89.3405 81.64 89.8805 82.19 90.2805 82.87C90.6805 83.53 90.8805 84.35 90.8805 85.33C90.8805 86.29 90.7005 87.13 90.3405 87.85C90.0005 88.55 89.4905 89.14 88.8105 89.62C88.1305 90.08 87.2805 90.43 86.2605 90.67C85.2405 90.89 84.0505 91 82.6905 91H72.4305V90.7L74.2605 90.25V70.51L72.4305 70.06V69.76H82.6905ZM81.9405 70.24C80.9605 70.24 80.1205 70.26 79.4205 70.3C78.7205 70.32 78.1505 70.37 77.7105 70.45V90.34C78.4705 90.48 79.9205 90.55 82.0605 90.55C83.2005 90.55 84.1805 90.37 85.0005 90.01C85.8405 89.65 86.4805 89.07 86.9205 88.27C87.3805 87.45 87.6105 86.4 87.6105 85.12C87.6105 83.42 87.1505 82.17 86.2305 81.37C85.3305 80.55 83.8705 80.12 81.8505 80.08L77.5005 80.02V79.69L81.8505 79.63C82.9705 79.61 83.8805 79.4 84.5805 79C85.3005 78.58 85.8305 78 86.1705 77.26C86.5305 76.52 86.7105 75.66 86.7105 74.68C86.7105 73.24 86.3105 72.14 85.5105 71.38C84.7105 70.62 83.5205 70.24 81.9405 70.24ZM101.706 75.55C102.866 75.55 103.856 75.69 104.676 75.97C105.516 76.23 106.206 76.64 106.746 77.2C107.286 77.76 107.676 78.47 107.916 79.33C108.156 80.17 108.276 81.17 108.276 82.33V89.95C108.276 90.25 108.336 90.47 108.456 90.61C108.596 90.75 108.776 90.82 108.996 90.82C109.236 90.82 109.506 90.75 109.806 90.61C110.126 90.47 110.436 90.29 110.736 90.07V90.4C110.496 90.62 110.206 90.81 109.866 90.97C109.546 91.13 109.206 91.25 108.846 91.33C108.486 91.41 108.136 91.45 107.796 91.45C106.916 91.45 106.226 91.22 105.726 90.76C105.226 90.28 104.976 89.51 104.976 88.45C104.976 88.05 104.976 87.76 104.976 87.58C104.976 87.38 104.976 87.23 104.976 87.13C104.976 87.03 104.976 86.92 104.976 86.8L104.736 86.62C104.356 87.38 103.896 88.06 103.356 88.66C102.836 89.26 102.246 89.77 101.586 90.19C100.946 90.59 100.286 90.9 99.6059 91.12C98.9259 91.34 98.2459 91.45 97.5659 91.45C96.8259 91.45 96.1559 91.32 95.5559 91.06C94.9559 90.82 94.4759 90.46 94.1159 89.98C93.7559 89.48 93.5759 88.87 93.5759 88.15C93.5759 86.45 94.5459 85.16 96.4859 84.28C98.4259 83.38 101.256 82.93 104.976 82.93C104.976 81.23 104.846 79.89 104.586 78.91C104.326 77.91 103.876 77.19 103.236 76.75C102.596 76.31 101.716 76.09 100.596 76.09C99.8559 76.09 99.1959 76.16 98.6159 76.3C98.0559 76.42 97.6159 76.57 97.2959 76.75C96.9959 76.93 96.8459 77.09 96.8459 77.23C96.8459 77.33 96.9359 77.44 97.1159 77.56C97.3159 77.66 97.6659 77.81 98.1659 78.01C99.0859 78.37 99.5459 78.88 99.5459 79.54C99.5459 80.14 99.2859 80.6 98.7659 80.92C98.2459 81.22 97.6159 81.37 96.8759 81.37C96.1559 81.37 95.5359 81.21 95.0159 80.89C94.5159 80.57 94.2659 80.11 94.2659 79.51C94.2659 79.03 94.4659 78.56 94.8659 78.1C95.2859 77.62 95.8359 77.19 96.5159 76.81C97.2159 76.43 98.0059 76.13 98.8859 75.91C99.7859 75.67 100.726 75.55 101.706 75.55ZM104.976 83.29C103.076 83.29 101.506 83.5 100.266 83.92C99.0259 84.32 98.1059 84.87 97.5059 85.57C96.9059 86.27 96.6059 87.05 96.6059 87.91C96.6059 88.43 96.7059 88.86 96.9059 89.2C97.1259 89.52 97.4159 89.76 97.7759 89.92C98.1359 90.08 98.5459 90.16 99.0059 90.16C99.5059 90.16 100.036 90.07 100.596 89.89C101.176 89.69 101.746 89.39 102.306 88.99C102.866 88.59 103.376 88.09 103.836 87.49C104.316 86.87 104.696 86.14 104.976 85.3V83.29ZM119.188 91.45C118.288 91.45 117.438 91.37 116.638 91.21C115.858 91.05 115.158 90.81 114.538 90.49C113.938 90.17 113.468 89.79 113.128 89.35C112.788 88.91 112.618 88.42 112.618 87.88C112.618 87.48 112.728 87.15 112.948 86.89C113.188 86.61 113.488 86.4 113.848 86.26C114.208 86.12 114.588 86.05 114.988 86.05C115.388 86.05 115.768 86.12 116.128 86.26C116.488 86.38 116.778 86.56 116.998 86.8C117.218 87.04 117.328 87.33 117.328 87.67C117.328 87.95 117.258 88.2 117.118 88.42C116.998 88.64 116.808 88.85 116.548 89.05C116.228 89.27 116.008 89.45 115.888 89.59C115.768 89.73 115.708 89.88 115.708 90.04C115.708 90.2 115.848 90.36 116.128 90.52C116.408 90.68 116.798 90.82 117.298 90.94C117.818 91.04 118.398 91.09 119.038 91.09C119.938 91.09 120.728 90.98 121.408 90.76C122.088 90.52 122.618 90.18 122.998 89.74C123.398 89.3 123.598 88.74 123.598 88.06C123.598 87.54 123.438 87.07 123.118 86.65C122.798 86.23 122.268 85.83 121.528 85.45C120.788 85.07 119.778 84.68 118.498 84.28C117.078 83.8 115.948 83.32 115.108 82.84C114.288 82.36 113.698 81.85 113.338 81.31C112.998 80.77 112.828 80.18 112.828 79.54C112.828 78.32 113.428 77.35 114.628 76.63C115.848 75.91 117.488 75.55 119.548 75.55C120.668 75.55 121.698 75.7 122.638 76C123.578 76.3 124.338 76.72 124.918 77.26C125.498 77.78 125.788 78.4 125.788 79.12C125.788 79.5 125.678 79.82 125.458 80.08C125.238 80.32 124.948 80.5 124.588 80.62C124.248 80.74 123.888 80.8 123.508 80.8C123.208 80.8 122.908 80.77 122.608 80.71C122.328 80.63 122.068 80.53 121.828 80.41C121.608 80.27 121.428 80.1 121.288 79.9C121.148 79.68 121.078 79.43 121.078 79.15C121.078 78.61 121.378 78.14 121.978 77.74C122.298 77.54 122.518 77.37 122.638 77.23C122.758 77.09 122.818 76.96 122.818 76.84C122.818 76.74 122.738 76.63 122.578 76.51C122.418 76.39 122.188 76.29 121.888 76.21C121.608 76.11 121.288 76.04 120.928 76C120.568 75.94 120.178 75.91 119.758 75.91C118.858 75.91 118.058 76.01 117.358 76.21C116.658 76.41 116.108 76.71 115.708 77.11C115.308 77.49 115.108 77.96 115.108 78.52C115.108 79.02 115.298 79.5 115.678 79.96C116.058 80.4 116.618 80.81 117.358 81.19C118.098 81.55 119.008 81.91 120.088 82.27C121.588 82.79 122.768 83.28 123.628 83.74C124.508 84.2 125.138 84.68 125.518 85.18C125.898 85.66 126.088 86.22 126.088 86.86C126.088 87.6 125.908 88.26 125.548 88.84C125.188 89.42 124.698 89.9 124.078 90.28C123.458 90.66 122.728 90.95 121.888 91.15C121.068 91.35 120.168 91.45 119.188 91.45ZM146.582 90.7V91H140.072V90.7L141.602 90.4V80.38C141.602 79.18 141.392 78.28 140.972 77.68C140.552 77.08 139.942 76.78 139.142 76.78C138.602 76.78 138.062 76.95 137.522 77.29C137.002 77.63 136.492 78.07 135.992 78.61C135.512 79.15 135.072 79.73 134.672 80.35C134.272 80.97 133.952 81.56 133.712 82.12V90.4L135.242 90.7V91H128.732V90.7L130.412 90.4V70H128.552V69.67L133.712 68.65V80.47L133.952 80.68C134.492 79.64 135.102 78.74 135.782 77.98C136.462 77.2 137.202 76.6 138.002 76.18C138.802 75.76 139.662 75.55 140.582 75.55C141.382 75.55 142.052 75.68 142.592 75.94C143.152 76.18 143.592 76.53 143.912 76.99C144.252 77.45 144.502 78 144.662 78.64C144.822 79.28 144.902 80.01 144.902 80.83V90.4L146.582 90.7Z" fill="black"/>
</svg>
