<svg width="50" height="50" viewBox="0 0 50 50" fill="none" xmlns="http://www.w3.org/2000/svg">
<g clip-path="url(#clip0_463_1556)">
<path d="M24.9999 23.125C19.3249 23.125 18.1749 14.525 18.1749 14.525C17.4999 10.05 19.5499 5 24.9249 5C30.3249 5 32.3749 10.05 31.6999 14.525C31.6999 14.525 30.6749 23.125 24.9999 23.125ZM24.9999 29.55L31.7999 25C37.7749 25 43.0999 30.825 43.0999 36.325V42.55C43.0999 42.55 33.9749 45.375 24.9999 45.375C15.8749 45.375 6.8999 42.55 6.8999 42.55V36.325C6.8999 30.7 11.7499 25.125 18.0749 25.125L24.9999 29.55Z" fill="black"/>
</g>
<defs>
<clipPath id="clip0_463_1556">
<rect width="50" height="50" fill="white"/>
</clipPath>
</defs>
</svg>
