<svg width="44" height="45" viewBox="0 0 44 45" fill="none" xmlns="http://www.w3.org/2000/svg">
<ellipse cx="22" cy="22.5" rx="22" ry="22.5" fill="#0B3145"/>
<path d="M22 20.5C24.7614 20.5 27 18.2614 27 15.5C27 12.7386 24.7614 10.5 22 10.5C19.2386 10.5 17 12.7386 17 15.5C17 18.2614 19.2386 20.5 22 20.5Z" stroke="#ECE9F2" stroke-width="2"/>
<path d="M32.5177 31.1249H30.7499M30.7499 31.1249H28.9822M30.7499 31.1249V29.3572M30.7499 31.1249V32.8927" stroke="#ECE9F2" stroke-width="2" stroke-linecap="round"/>
<path d="M22 24.25C25.2604 24.25 28.1043 25.269 29.6096 26.78M26.4801 33.5457C25.1698 33.993 23.6374 34.25 22 34.25C17.1675 34.25 13.25 32.0114 13.25 29.25C13.25 27.5509 14.7332 26.0498 17 25.1463" stroke="#ECE9F2" stroke-width="2" stroke-linecap="round"/>
</svg>
