<svg width="40" height="36" viewBox="0 0 40 36" fill="none" xmlns="http://www.w3.org/2000/svg">
<path d="M19.726 0C8.87028 0 0.136719 7.91538 0.136719 17.7692C0.136719 20.9192 1.03456 23.8269 2.58538 26.4923C2.74863 26.8154 2.83025 27.2192 2.74862 27.5423L0.952939 33.1154C0.626451 34.1654 1.60592 35.0538 2.667 34.7308L8.38055 32.7923C8.78866 32.6308 9.19677 32.7115 9.52326 32.9538C12.5433 34.65 16.053 35.6192 19.8076 35.6192C30.6634 35.6192 39.3969 27.7038 39.3969 17.85C39.2337 7.91538 30.5001 0 19.726 0ZM29.1126 13.8115L19.1547 23.5038C18.7465 23.9077 18.3384 24.0692 17.7671 24.0692C17.2774 24.0692 16.7876 23.9077 16.3795 23.5038L11.5638 18.8192C11.1557 18.4154 11.1557 17.85 11.5638 17.5269L12.9514 16.2346C13.3595 15.8308 13.9308 15.8308 14.339 16.2346L17.7671 19.6269L26.3374 11.2269C26.7455 10.8231 27.3169 10.8231 27.725 11.2269L29.1126 12.5192C29.439 12.8423 29.439 13.4885 29.1126 13.8115Z" fill="url(#paint0_linear_473_28)"/>
<defs>
<linearGradient id="paint0_linear_473_28" x1="19.7668" y1="0" x2="19.7668" y2="35.6192" gradientUnits="userSpaceOnUse">
<stop stop-color="#6096BA"/>
<stop offset="1" stop-color="#2B4454"/>
</linearGradient>
</defs>
</svg>
