<svg width="42" height="43" viewBox="0 0 42 43" fill="none" xmlns="http://www.w3.org/2000/svg">
<path d="M21.1799 33.7603H19.256L17.9734 32.4708H7.07129V13.1279H9.63649V28.6022C9.63649 28.6022 17.4283 26.6679 21.1799 33.7603Z" fill="#0B3145"/>
<path d="M32.7231 28.6022V13.1279H35.2883V32.4708H24.3862L23.1036 33.7603H21.1797C24.9313 26.6679 32.7231 28.6022 32.7231 28.6022Z" fill="#0B3145"/>
<path d="M21.1797 33.7603C17.428 26.6679 9.63623 28.6022 9.63623 28.6022V11.1936L13.484 9.90411V26.0232C17.7359 26.0232 21.1797 29.4855 21.1797 33.7603Z" fill="#6096BA"/>
<path d="M28.8753 9.90411L32.7231 11.1936V28.6022C32.7231 28.6022 24.9313 26.6679 21.1797 33.7603C21.1797 29.4855 24.6235 26.0232 28.8753 26.0232V9.90411Z" fill="#6096BA"/>
<path d="M21.18 16.9965C21.18 12.7217 17.7362 9.25934 13.4844 9.25934V26.0232C17.7362 26.0232 21.18 29.4855 21.18 33.7603C21.18 29.4855 24.6238 26.0232 28.8756 26.0232V9.25934C24.6238 9.25934 21.18 12.7217 21.18 16.9965Z" fill="#A3CEF1"/>
</svg>
