<svg width="40" height="38" viewBox="0 0 40 38" fill="none" xmlns="http://www.w3.org/2000/svg">
<path d="M27 14.5H13V12.75H27V14.5ZM18.4775 33.75L20.3395 35.5H5.125C2.7135 35.5 0.75 32.7525 0.75 29.375C0.75 25.9975 2.7135 23.25 5.125 23.25H7.75V7.0625C7.75 3.4435 9.7135 0.5 12.125 0.5H34.875C37.2865 0.5 39.1625 3.2475 39.1625 6.625C39.1625 10.0025 37.2865 12.75 34.875 12.75H32.25V25.2415L30.5 26.9548V7.0625C30.4848 5.39204 30.8688 3.7421 31.62 2.25H12.125C10.886 2.25 9.5 4.308 9.5 7.0625V23.25H27.9975L26.755 24.6955C25.7235 26.0324 25.1912 27.6875 25.25 29.375C25.2504 29.7801 25.2778 30.1846 25.3322 30.586L23.5262 28.8868C23.5695 27.5394 23.8925 26.2158 24.4747 25H5.125C3.72675 25 2.5 27.044 2.5 29.375C2.5 31.706 3.72675 33.75 5.125 33.75H18.4775ZM32.25 11H34.875C36.2732 11 37.5875 8.956 37.5875 6.625C37.5875 4.294 36.2732 2.25 34.875 2.25H33.6902C32.7113 3.66055 32.2069 5.3461 32.25 7.0625V11ZM13 19.75H27V18H13V19.75ZM27 7.5H13V9.25H27V7.5ZM38.3592 22.9333L26.1127 34.9225L21.1567 30.2622L19.958 31.5363L26.1355 37.348L39.5842 24.1845L38.3592 22.9333Z" fill="white"/>
</svg>
