<svg width="42" height="23" viewBox="0 0 42 23" fill="none" xmlns="http://www.w3.org/2000/svg">
<path d="M33.7314 9.66944C34.0268 9.37554 34.0268 8.90203 33.7314 8.60812C33.4361 8.31422 32.9604 8.31422 32.665 8.60812L31.5084 9.75108C31.1885 10.0695 30.6717 10.0695 30.3518 9.75108L29.1951 8.60812C28.8998 8.31422 28.424 8.31422 28.1287 8.60812C27.8334 8.90203 27.8334 9.37554 28.1287 9.66944L29.2771 10.8042C29.5971 11.1226 29.5971 11.6451 29.2771 11.9635L28.1287 13.0983C27.8334 13.3922 27.8334 13.8657 28.1287 14.1596C28.424 14.4535 28.8998 14.4535 29.1951 14.1596L30.3518 13.0167C30.6717 12.6983 31.1885 12.6983 31.5084 13.0167L32.665 14.1596C32.9604 14.4535 33.4361 14.4535 33.7314 14.1596C34.0268 13.8657 34.0268 13.3922 33.7314 13.0983L32.583 11.9635C32.2631 11.6451 32.2631 11.1226 32.583 10.8042L33.7314 9.66944Z" fill="black"/>
<path d="M13.8633 9.67774C14.1586 9.38384 14.1586 8.91033 13.8633 8.61642C13.568 8.32252 13.0922 8.32252 12.7969 8.61642L11.6402 9.75938C11.3203 10.0778 10.8035 10.0778 10.4836 9.75938L9.32695 8.61642C9.03164 8.32252 8.55586 8.32252 8.26055 8.61642C7.96523 8.91033 7.96523 9.38384 8.26055 9.67774L9.40898 10.8125C9.72891 11.1309 9.72891 11.6534 9.40898 11.9718L8.26055 13.1066C7.96523 13.4005 7.96523 13.874 8.26055 14.1679C8.55586 14.4618 9.03164 14.4618 9.32695 14.1679L10.4836 13.025C10.8035 12.7066 11.3203 12.7066 11.6402 13.025L12.7969 14.1679C13.0922 14.4618 13.568 14.4618 13.8633 14.1679C14.1586 13.874 14.1586 13.4005 13.8633 13.1066L12.7148 11.9718C12.3949 11.6534 12.3949 11.1309 12.7148 10.8125L13.8633 9.67774Z" fill="black"/>
<path d="M23.8057 9.66944C24.101 9.37554 24.101 8.90203 23.8057 8.60812C23.5104 8.31422 23.0346 8.31422 22.7393 8.60812L21.5826 9.75108C21.2627 10.0695 20.7459 10.0695 20.426 9.75108L19.2693 8.60812C18.974 8.31422 18.4982 8.31422 18.2029 8.60812C17.9076 8.90203 17.9076 9.37554 18.2029 9.66944L19.3514 10.8042C19.6713 11.1226 19.6713 11.6451 19.3514 11.9635L18.2029 13.0983C17.9076 13.3922 17.9076 13.8657 18.2029 14.1596C18.4982 14.4535 18.974 14.4535 19.2693 14.1596L20.426 13.0167C20.7459 12.6983 21.2627 12.6983 21.5826 13.0167L22.7393 14.1596C23.0346 14.4535 23.5104 14.4535 23.8057 14.1596C24.101 13.8657 24.101 13.3922 23.8057 13.0983L22.6572 11.9635C22.3373 11.6451 22.3373 11.1226 22.6572 10.8042L23.8057 9.66944Z" fill="black"/>
<path d="M32.2547 0.558594H9.74531C4.87266 0.558594 0.902344 4.50179 0.902344 9.35935V13.4087C0.902344 18.2581 4.87266 22.2094 9.74531 22.2094H32.2547C37.1273 22.2094 41.0977 18.2581 41.0977 13.4087V9.35935C41.0977 4.50179 37.1273 0.558594 32.2547 0.558594ZM37.7508 13.4087C37.7508 16.4212 35.2898 18.8785 32.2547 18.8785H9.74531C6.71836 18.8785 4.24922 16.4293 4.24922 13.4087V9.35935C4.24922 6.34685 6.71016 3.88949 9.74531 3.88949H32.2547C35.2816 3.88949 37.7508 6.33868 37.7508 9.35935V13.4087Z" fill="black"/>
</svg>
