<svg width="20" height="21" viewBox="0 0 20 21" fill="none" xmlns="http://www.w3.org/2000/svg">
<path fill-rule="evenodd" clip-rule="evenodd" d="M13.3334 4.93629C13.3334 7.56505 11.2014 9.69607 8.57147 9.69607C5.94155 9.69607 3.80957 7.56505 3.80957 4.93629C3.80957 2.30754 5.94155 0.176514 8.57147 0.176514C11.2014 0.176514 13.3334 2.30754 13.3334 4.93629ZM5.71433 4.93629C5.71433 6.51355 6.99347 7.79216 8.57147 7.79216C10.1495 7.79216 11.4286 6.51355 11.4286 4.93629C11.4286 3.35904 10.1495 2.08043 8.57147 2.08043C6.99347 2.08043 5.71433 3.35904 5.71433 4.93629Z" fill="black"/>
<path d="M8.26276 12.2883C7.416 12.2647 6.8519 12.1434 6.4058 11.985C5.96529 11.8286 5.61735 11.6322 5.1589 11.3732C5.06949 11.3228 4.97569 11.2698 4.87637 11.2144C3.88178 10.6596 2.60442 10.7886 1.77538 11.5499C1.41374 11.8819 0.990819 12.3114 0.652286 12.7794C0.329552 13.2255 0 13.8189 0 14.456V16.6198C0 18.0539 1.27937 19.2158 2.85714 19.2158H9.62C9.062 18.719 8.59971 18.1337 8.26057 17.485H2.85714C2.33097 17.485 1.90476 17.0976 1.90476 16.6198V14.456C1.90476 14.3305 1.98618 14.0865 2.24393 13.7302C2.48588 13.3957 2.81293 13.0579 3.12932 12.7673C3.32773 12.5851 3.62958 12.5499 3.87989 12.6895C3.95868 12.7334 4.03892 12.7789 4.12089 12.8255C4.58036 13.0862 5.09446 13.3777 5.71272 13.5972C6.27391 13.7964 6.90657 13.9345 7.69152 13.9926C7.78962 13.3911 7.98505 12.8185 8.26276 12.2883Z" fill="black"/>
<path d="M12.3811 14.0232C11.8551 14.0232 11.4287 14.4106 11.4287 14.8886C11.4287 15.3666 11.8551 15.754 12.3811 15.754H16.1906C16.7166 15.754 17.143 15.3666 17.143 14.8886C17.143 14.4106 16.7166 14.0232 16.1906 14.0232H12.3811Z" fill="black"/>
<path fill-rule="evenodd" clip-rule="evenodd" d="M14.2856 20.081C17.4415 20.081 19.9999 17.7563 19.9999 14.8885C19.9999 12.0208 17.4415 9.69604 14.2856 9.69604C11.1297 9.69604 8.57129 12.0208 8.57129 14.8885C8.57129 17.7563 11.1297 20.081 14.2856 20.081ZM14.2856 18.3659C12.1721 18.3659 10.4588 16.809 10.4588 14.8885C10.4588 12.9681 12.1721 11.4112 14.2856 11.4112C16.399 11.4112 18.1123 12.9681 18.1123 14.8885C18.1123 16.809 16.399 18.3659 14.2856 18.3659Z" fill="black"/>
</svg>
