<svg width="37" height="41" viewBox="0 0 37 41" fill="none" xmlns="http://www.w3.org/2000/svg">
<path fill-rule="evenodd" clip-rule="evenodd" d="M24.5 9.625C24.5 14.9407 20.5824 19.25 15.75 19.25C10.9175 19.25 7 14.9407 7 9.625C7 4.30925 10.9175 0 15.75 0C20.5824 0 24.5 4.30925 24.5 9.625ZM10.5 9.625C10.5 12.8144 12.8504 15.4 15.75 15.4C18.6496 15.4 21 12.8144 21 9.625C21 6.43555 18.6496 3.85 15.75 3.85C12.8504 3.85 10.5 6.43555 10.5 9.625Z" fill="white"/>
<path d="M15.1828 24.4918C13.6269 24.444 12.5904 24.1987 11.7707 23.8784C10.9612 23.5622 10.3219 23.165 9.47949 22.6414C9.31518 22.5393 9.14284 22.4322 8.96033 22.3202C7.13277 21.1983 4.78562 21.4591 3.26226 22.9985C2.59775 23.67 1.82063 24.5385 1.19858 25.4848C0.605553 26.3869 0 27.5869 0 28.8752V33.2507C0 36.1507 2.35084 38.5002 5.25 38.5002H17.6767C16.6514 37.4955 15.802 36.312 15.1788 35.0002H5.25C4.28316 35.0002 3.5 34.2169 3.5 33.2507V28.8752C3.5 28.6213 3.64961 28.128 4.12323 27.4075C4.5678 26.7311 5.16876 26.0479 5.75013 25.4604C6.11471 25.0919 6.66935 25.0207 7.12931 25.3031C7.27407 25.3918 7.42152 25.4839 7.57214 25.578C8.41641 26.1051 9.36106 26.6947 10.4971 27.1385C11.5283 27.5414 12.6908 27.8207 14.1332 27.9381C14.3134 26.7218 14.6725 25.5639 15.1828 24.4918Z" fill="white"/>
<path d="M22.75 28C21.7835 28 21 28.7835 21 29.75C21 30.7165 21.7835 31.5 22.75 31.5H29.75C30.7165 31.5 31.5 30.7165 31.5 29.75C31.5 28.7835 30.7165 28 29.75 28H22.75Z" fill="white"/>
<path fill-rule="evenodd" clip-rule="evenodd" d="M26.25 40.25C32.049 40.25 36.75 35.549 36.75 29.75C36.75 23.951 32.049 19.25 26.25 19.25C20.451 19.25 15.75 23.951 15.75 29.75C15.75 35.549 20.451 40.25 26.25 40.25ZM26.25 36.7817C22.3666 36.7817 19.2183 33.6334 19.2183 29.75C19.2183 25.8666 22.3666 22.7183 26.25 22.7183C30.1334 22.7183 33.2817 25.8666 33.2817 29.75C33.2817 33.6334 30.1334 36.7817 26.25 36.7817Z" fill="white"/>
</svg>
