<svg width="42" height="42" viewBox="0 0 42 42" fill="none" xmlns="http://www.w3.org/2000/svg">
<path d="M27.9073 24.0294C26.2187 26.1732 23.7508 27.5363 21 27.5363C18.2476 27.5363 15.7813 26.1732 14.0917 24.0278C12.6518 24.7196 11.4544 25.8805 10.7419 27.3791L9.46094 30.0779C12.1541 33.496 16.3202 35.6998 21.0001 35.6998C25.6785 35.6998 29.8445 33.496 32.5377 30.0806L31.2553 27.3791C30.5442 25.8804 29.3452 24.7211 27.9073 24.0294Z" fill="black"/>
<path d="M20.9994 25.4366C24.9216 25.4366 28.1131 21.7572 28.1131 17.2346C28.1131 12.7118 24.9216 9.03125 20.9994 9.03125C17.0772 9.03125 13.8848 12.7118 13.8848 17.2346C13.8848 21.7572 17.0772 25.4366 20.9994 25.4366ZM20.9994 11.8313C23.3785 11.8313 25.3127 14.2539 25.3127 17.2346C25.3127 20.2123 23.3784 22.6364 20.9994 22.6364C18.6206 22.6364 16.6844 20.2123 16.6844 17.2346C16.6844 14.2539 18.6206 11.8313 20.9994 11.8313Z" fill="black"/>
<path d="M21 0C9.42024 0 0 9.42076 0 20.9998C0 32.5802 9.42024 42 21 42C32.5803 42 42 32.5802 42 20.9998C42 9.42076 32.5803 0 21 0ZM21 37.8C11.7358 37.8 4.20003 30.264 4.20003 20.9998C4.20003 11.737 11.7359 4.19953 21 4.19953C30.2641 4.19953 37.8 11.737 37.8 20.9998C37.8 30.264 30.2642 37.8 21 37.8Z" fill="black"/>
</svg>
