<svg width="35" height="35" viewBox="0 0 35 35" fill="none" xmlns="http://www.w3.org/2000/svg">
<path d="M27.9771 19.6836C25.4162 22.4972 21.6732 24.2862 17.501 24.2862C13.3266 24.2862 9.58597 22.4972 7.02337 19.6816C4.83953 20.5896 3.0234 22.1131 1.94285 24.0799L0 27.6218C4.0847 32.1077 10.4033 35 17.5012 35C24.5968 35 30.9153 32.1077 35 27.6253L33.0551 24.0799C31.9766 22.113 30.158 20.5915 27.9771 19.6836Z" fill="black"/>
<path d="M17.5005 21.5304C23.4492 21.5304 28.2898 16.7017 28.2898 10.7661C28.2898 4.83042 23.4492 0 17.5005 0C11.5518 0 6.70996 4.83042 6.70996 10.7661C6.70996 16.7017 11.5518 21.5304 17.5005 21.5304ZM17.5005 3.67484C21.1089 3.67484 24.0425 6.85427 24.0425 10.7661C24.0425 14.6741 21.1088 17.8555 17.5005 17.8555C13.8927 17.8555 10.9562 14.6741 10.9562 10.7661C10.9562 6.85427 13.8927 3.67484 17.5005 3.67484Z" fill="black"/>
</svg>
