<svg width="19" height="20" viewBox="0 0 19 20" fill="none" xmlns="http://www.w3.org/2000/svg">
<g clip-path="url(#clip0_458_346)">
<path d="M10.6682 15.0078L18.6783 6.98551C18.8637 6.79996 18.9658 6.55228 18.9658 6.28817C18.9658 6.02407 18.8637 5.77639 18.6783 5.59084L18.0885 5.00006C17.7042 4.61563 17.0796 4.61563 16.6959 5.00006L9.96955 11.7366L3.2357 4.99258C3.05029 4.80704 2.80312 4.70459 2.53956 4.70459C2.27571 4.70459 2.02854 4.80704 1.84298 4.99258L1.25338 5.58337C1.06796 5.76906 0.96582 6.0166 0.96582 6.2807C0.96582 6.5448 1.06796 6.79249 1.25338 6.97803L9.27078 15.0078C9.45678 15.1938 9.70511 15.2959 9.96911 15.2953C10.2341 15.2959 10.4823 15.1938 10.6682 15.0078Z" fill="#0B3145"/>
</g>
<defs>
<clipPath id="clip0_458_346">
<path d="M15.9658 0.986328C17.6227 0.986328 18.9658 2.32947 18.9658 3.98633V16.0134C18.9658 17.6702 17.6227 19.0134 15.9658 19.0134H3.96582C2.30897 19.0134 0.96582 17.6702 0.96582 16.0134V3.98633C0.96582 2.32948 2.30897 0.986328 3.96582 0.986328L15.9658 0.986328Z" fill="white"/>
</clipPath>
</defs>
</svg>
