<svg width="24" height="24" viewBox="0 0 24 24" fill="none" xmlns="http://www.w3.org/2000/svg">
<g clip-path="url(#clip0_453_293)">
<path d="M23.2032 21.8486L18.9657 17.6111C18.7595 17.8548 18.5532 18.0939 18.3235 18.3236C18.0985 18.5486 17.8595 18.7642 17.6157 18.9705L21.8485 23.2033C22.4017 23.7189 23.0157 23.3908 23.2032 23.2033C23.5782 22.8283 23.5782 22.2236 23.2032 21.8486Z" fill="#0B3145"/>
<path d="M16.9735 3.33291C13.2094 -0.426465 7.09224 -0.421777 3.33286 3.33291C-0.421826 7.09229 -0.421826 13.2095 3.33286 16.9688C5.21255 18.8485 7.68286 19.7907 10.1532 19.7907C12.6235 19.7907 15.0891 18.8485 16.9688 16.9688C20.7329 13.2095 20.7329 7.09229 16.9735 3.33291Z" fill="#0B3145"/>
</g>
<defs>
<clipPath id="clip0_453_293">
<rect width="24" height="24" fill="white"/>
</clipPath>
</defs>
</svg>
