<svg width="30" height="30" viewBox="0 0 30 30" fill="none" xmlns="http://www.w3.org/2000/svg">
<path d="M15 12.5C17.7614 12.5 20 10.2614 20 7.5C20 4.73858 17.7614 2.5 15 2.5C12.2386 2.5 10 4.73858 10 7.5C10 10.2614 12.2386 12.5 15 12.5Z" stroke="#0B3145" stroke-width="2"/>
<path d="M25.5177 23.125H23.7499M23.7499 23.125H21.9822M23.7499 23.125V21.3573M23.7499 23.125V24.8928" stroke="#0B3145" stroke-width="2" stroke-linecap="round"/>
<path d="M15 16.25C18.2604 16.25 21.1043 17.269 22.6096 18.78M19.4801 25.5457C18.1698 25.993 16.6374 26.25 15 26.25C10.1675 26.25 6.25 24.0114 6.25 21.25C6.25 19.5509 7.73315 18.0498 10 17.1463" stroke="#0B3145" stroke-width="2" stroke-linecap="round"/>
</svg>
